<svg xmlns="http://www.w3.org/2000/svg" xmlns:xlink="http://www.w3.org/1999/xlink" viewBox="0 0 71.05 16.03"><defs><style>.cls-1{fill:#bec1c2;}.cls-2{fill:#3bba95;}.cls-3{fill:url(#linear-gradient);}.cls-4{fill:url(#linear-gradient-2);}.cls-5{fill:url(#linear-gradient-3);}</style><linearGradient id="linear-gradient" x1="-73.9" y1="103.58" x2="-81.06" y2="91.13" gradientTransform="translate(138.64 -88.91)" gradientUnits="userSpaceOnUse"><stop offset="0" stop-color="#35b993"/><stop offset="0.21" stop-color="#3bba95"/><stop offset="1" stop-opacity="0"/></linearGradient><linearGradient id="linear-gradient-2" x1="-80.28" y1="92.83" x2="-84.48" y2="100.91" gradientTransform="translate(138.64 -88.91)" gradientUnits="userSpaceOnUse"><stop offset="0" stop-color="#bec1c2"/><stop offset="0.13" stop-color="#b5c1bf"/><stop offset="0.36" stop-color="#98beb6"/><stop offset="0.65" stop-color="#6cbca7"/><stop offset="1" stop-color="#35b993"/></linearGradient><linearGradient id="linear-gradient-3" x1="-88.86" y1="96.68" x2="-77.31" y2="104.39" gradientTransform="translate(138.64 -88.91)" gradientUnits="userSpaceOnUse"><stop offset="0" stop-opacity="0"/><stop offset="0.08" stop-opacity="0.06"/><stop offset="0.21" stop-color="#002318" stop-opacity="0.21"/><stop offset="0.37" stop-color="#185741" stop-opacity="0.45"/><stop offset="0.57" stop-color="#309676" stop-opacity="0.79"/><stop offset="0.69" stop-color="#3bba95"/><stop offset="1" stop-color="#35b993"/></linearGradient></defs><title>logo_solo</title><g id="Layer_2" data-name="Layer 2"><g id="Background"><g id="logo-grey"><g id="logo-grey-2"><g id="siblanco"><path id="s" class="cls-1" d="M1.85,14.52A5.47,5.47,0,0,1,0,13.59l.64-1.14a5.07,5.07,0,0,0,1.68.87,6.13,6.13,0,0,0,2.09.32,4.08,4.08,0,0,0,2.15-.45,1.44,1.44,0,0,0,.69-1.28,1.11,1.11,0,0,0-.4-.91,2.57,2.57,0,0,0-1-.49,12.24,12.24,0,0,0-1.55-.33,17.81,17.81,0,0,1-2.07-.49A3,3,0,0,1,.94,8.83,2.44,2.44,0,0,1,.37,7.15,2.61,2.61,0,0,1,1.48,5a5,5,0,0,1,3.08-.84,7.92,7.92,0,0,1,2.05.28,5.9,5.9,0,0,1,1.7.71L7.69,6.29a5.34,5.34,0,0,0-3.13-.91,3.68,3.68,0,0,0-2.07.49A1.48,1.48,0,0,0,1.8,7.13a1.39,1.39,0,0,0,.39,1,2.46,2.46,0,0,0,1,.54A13.09,13.09,0,0,0,4.78,9a19,19,0,0,1,2.05.49,2.92,2.92,0,0,1,1.28.81,2.24,2.24,0,0,1,.54,1.61,2.51,2.51,0,0,1-1.16,2.19,5.49,5.49,0,0,1-3.2.81A8.16,8.16,0,0,1,1.85,14.52Z"/><g id="a"><path class="cls-1" d="M38,5.85a5.41,5.41,0,1,0-.32,7.64c.1-.1.22-.2.32-.32v1.75h1.43V9.49A5.37,5.37,0,0,0,38,5.85Zm-4,7.71a4.07,4.07,0,1,1,4-4.9,3.92,3.92,0,0,1,0,1.67A4.06,4.06,0,0,1,34.07,13.56Z"/></g><g id="l"><path class="cls-1" d="M25.66,0V14.89h1.43V0Z"/></g><path id="i" class="cls-1" d="M10.26,4.29v10.6h1.43V4.29Z"/><g id="n"><path class="cls-1" d="M49.48,5.45a5,5,0,0,0-3.6-1.33c-2.86,0-4.83,1.75-4.83,4.63v6.14h1.43v-6a3.43,3.43,0,0,1,.83-2.51,3.91,3.91,0,0,1,5.18,0,3.6,3.6,0,0,1,.84,2.51v6h1.43V8.75A4.65,4.65,0,0,0,49.48,5.45Z"/></g><g id="b"><path class="cls-1" d="M18.69,4.1a5.38,5.38,0,0,0-4,1.75V0H13.29V9.49a5.4,5.4,0,1,0,5.4-5.39Zm0,9.46a4.07,4.07,0,1,1,4.06-4.07h0a4.09,4.09,0,0,1-4.06,4.07Z"/></g><path id="i-punkt" class="cls-1" d="M10.23,1.73A1,1,0,0,1,9.94,1,1,1,0,0,1,10.23.3,1,1,0,0,1,11,0a1,1,0,0,1,.74.3A.94.94,0,0,1,12,1a1,1,0,0,1-.3.74,1.11,1.11,0,0,1-1.5,0Z"/><g id="o"><path class="cls-1" d="M71.05,9.49a5.4,5.4,0,0,1-5.4,5.4,5.23,5.23,0,0,1-2.44-.59l.69-1.13,0,0a4.21,4.21,0,0,0,1.73.4A4.06,4.06,0,1,0,62.47,7c-.1.12-.2.27-.3.39a4,4,0,0,0-.59,2.1,4.93,4.93,0,0,0,.05.54h0l-1.28.32a5.24,5.24,0,0,1-.08-.88,5.43,5.43,0,0,1,.62-2.52,5.71,5.71,0,0,1,.79-1.13,5.4,5.4,0,0,1,7.64-.32,5.49,5.49,0,0,1,1.75,4Z"/></g><g id="arrow"><polygon class="cls-2" points="65.65 9.52 61.31 12.7 60.55 12.35 58.26 11.34 65.65 9.52"/><polygon class="cls-3" points="61.66 16.03 61.38 13.44 61.31 12.7 65.65 9.52 61.66 16.03"/></g><g id="c"><path class="cls-4" d="M61.36,5.53h0a5.66,5.66,0,0,0-.79,1.08,4,4,0,0,0-5.72,0,4.16,4.16,0,0,0-1.11,2v0c-.07.25-.76,3,1.93,5.77a5.75,5.75,0,0,1-1.38-.81,5.11,5.11,0,0,1-1.85-3,4.77,4.77,0,0,1-.1-1.08,5.39,5.39,0,0,1,5.37-5.4,5.59,5.59,0,0,1,3.65,1.46Z"/><path class="cls-5" d="M61.39,13.44l-.23.12-.22.13a6.84,6.84,0,0,1-2.12,1,5,5,0,0,1-3.18-.29h0c-2.66-2.79-2-5.53-1.92-5.77a3.83,3.83,0,0,0,0,1.65A3.73,3.73,0,0,0,55,12.45a4.66,4.66,0,0,0,2.17,1.06,3,3,0,0,0,1.48-.07A4.68,4.68,0,0,0,60,12.7l.08,0,.22-.15.22-.15.77.35Z"/></g></g></g></g></g></g></svg>