<?xml version="1.0" encoding="utf-8"?>
<!-- Generator: Adobe Illustrator 24.1.2, SVG Export Plug-In . SVG Version: 6.00 Build 0)  -->
<svg version="1.1" id="Ebene_1" xmlns="http://www.w3.org/2000/svg" xmlns:xlink="http://www.w3.org/1999/xlink" x="0px" y="0px"
	 viewBox="0 0 289.1 82.2" style="enable-background:new 0 0 289.1 82.2;" xml:space="preserve">
<style type="text/css">
	.st0{fill:#231F20;stroke:#231F20;stroke-width:0.5;stroke-miterlimit:10;}
	.st1{fill:#35B88F;stroke:#231F20;stroke-width:0.5;stroke-miterlimit:10;}
	.st2{fill:url(#SVGID_1_);stroke:#231F20;stroke-width:0.5;stroke-miterlimit:10;}
	.st3{fill:url(#SVGID_2_);stroke:#231F20;stroke-width:0.5;stroke-miterlimit:10;}
	.st4{fill:url(#SVGID_3_);stroke:#231F20;stroke-width:0.5;stroke-miterlimit:10;}
	.st5{stroke:#231F20;stroke-width:0.5;stroke-miterlimit:10;}
</style>
<g id="Layer_2">
	<g id="logo">
		<g id="siblanco">
			<path id="s" class="st0" d="M7.5,58.9c-2.7-0.8-5.3-2.1-7.5-3.8l2.6-4.6c2,1.6,4.3,2.7,6.8,3.5c2.7,0.9,5.6,1.4,8.5,1.3
				c3.9,0,6.8-0.6,8.7-1.8c1.8-1.1,2.9-3.1,2.8-5.2c0.1-1.4-0.5-2.8-1.6-3.7c-1.1-0.9-2.5-1.6-3.9-2c-2.1-0.6-4.2-1-6.3-1.3
				c-2.8-0.5-5.7-1.2-8.4-2c-2.1-0.7-4-1.9-5.4-3.5c-1.6-1.9-2.4-4.3-2.3-6.8c0-3.5,1.6-6.8,4.5-8.8c3-2.3,7.2-3.4,12.5-3.4
				c2.8,0,5.6,0.4,8.3,1.1c2.4,0.6,4.8,1.6,6.9,2.9l-2.5,4.7c-3.7-2.5-8.2-3.8-12.7-3.7c-3.7,0-6.5,0.7-8.4,2
				c-1.8,1.1-2.8,3.1-2.8,5.1c0,1.5,0.6,2.9,1.6,3.9c1.1,1,2.5,1.8,4,2.2c2.2,0.6,4.3,1.1,6.5,1.4c2.8,0.5,5.5,1.2,8.3,2
				c2,0.6,3.8,1.8,5.2,3.3c1.6,1.8,2.3,4.2,2.2,6.5c0.1,3.6-1.7,7-4.7,8.9c-3.1,2.2-7.5,3.3-13,3.3C14.1,60.4,10.7,59.9,7.5,58.9z"
				/>
			<g id="a">
				<path class="st0" d="M154.3,23.7c-8.2-8.9-22.1-9.5-31-1.3s-9.5,22.1-1.3,31s22.1,9.5,31,1.3c0.4-0.4,0.9-0.8,1.3-1.3v7.1h5.8
					V38.5C160.1,33,158,27.7,154.3,23.7z M138.2,55c-9.1,0-16.5-7.4-16.5-16.5s7.4-16.5,16.5-16.5c7.8,0,14.5,5.5,16.1,13.1
					c0.5,2.2,0.5,4.5,0,6.8C152.7,49.5,146,55,138.2,55z"/>
			</g>
			<g id="l">
				<path class="st0" d="M104.1,0v60.4h5.8V0H104.1z"/>
			</g>
			<path id="i" class="st0" d="M41.6,17.4v43h5.8v-43L41.6,17.4z"/>
			<g id="n">
				<path class="st0" d="M200.7,22.1c-3.5-3.5-8.6-5.4-14.6-5.4c-11.6,0-19.6,7.1-19.6,18.8v24.9h5.8V36.1c0-4.5,1.1-7.9,3.4-10.2
					c5-5.3,16-5.3,21,0c2.2,2.4,3.4,5.8,3.4,10.2v24.4h5.8V35.5C205.8,29.9,203.9,25.3,200.7,22.1z"/>
			</g>
			<g id="b">
				<path class="st0" d="M76.8,16.6c-5.8,0-11.4,2.6-15.3,7.1V0H56v38.5c0,12.1,9.3,21.9,20.9,21.9s20.9-9.8,20.9-21.9
					S88.3,16.6,76.8,16.6C76.8,16.6,76.8,16.6,76.8,16.6z M76.8,55c-8.7,0-15.7-7.4-15.7-16.5c0-9.1,7-16.5,15.7-16.5
					s15.7,7.4,15.7,16.5c0,0,0,0,0,0C92.4,47.6,85.4,55,76.8,55L76.8,55z"/>
			</g>
			<path id="i-punkt" class="st0" d="M41.5,7c-0.8-0.8-1.2-1.8-1.2-2.9c0-1.1,0.4-2.1,1.2-2.9c0.8-0.8,1.9-1.3,3-1.2
				c1.1,0,2.2,0.4,3,1.2c0.8,0.7,1.3,1.8,1.3,2.8c0,1.1-0.4,2.2-1.2,3C45.8,8.6,43.2,8.6,41.5,7L41.5,7z"/>
			<g id="o">
				<path class="st0" d="M288.2,38.5c0,12.1-9.8,21.9-21.9,21.9c-3.4,0-6.8-0.8-9.9-2.4l2.8-4.6l0.1-0.1c2.2,1,4.6,1.6,7,1.6
					c9.1,0,16.5-7.3,16.5-16.4s-7.3-16.5-16.4-16.5c-5.1,0-9.8,2.3-13,6.3c-0.4,0.5-0.8,1.1-1.2,1.6c-1.6,2.6-2.4,5.5-2.4,8.5
					c0,0.7,0.1,1.5,0.2,2.2h-0.1l-5.2,1.3c-0.2-1.2-0.3-2.4-0.3-3.6c0-3.6,0.9-7.1,2.5-10.2c0.9-1.7,2-3.2,3.2-4.6
					c8.2-8.9,22-9.5,31-1.3C285.7,26.5,288.2,32.4,288.2,38.5L288.2,38.5z"/>
			</g>
			<g id="arrow">
				<polygon class="st1" points="266.3,38.6 248.7,51.5 245.6,50.1 236.3,46 266.3,38.6 				"/>
				
					<linearGradient id="SVGID_1_" gradientUnits="userSpaceOnUse" x1="262.618" y1="24.5189" x2="233.598" y2="75.0388" gradientTransform="matrix(1 0 0 -1 0 84)">
					<stop  offset="0" style="stop-color:#34B38B"/>
					<stop  offset="0.21" style="stop-color:#35B88F"/>
					<stop  offset="1" style="stop-color:#000000"/>
				</linearGradient>
				<polygon class="st2" points="250.1,65 249,54.5 248.7,51.5 266.3,38.6 				"/>
			</g>
			<g id="c">
				
					<linearGradient id="SVGID_2_" gradientUnits="userSpaceOnUse" x1="236.7352" y1="68.1121" x2="219.7252" y2="35.3421" gradientTransform="matrix(1 0 0 -1 0 84)">
					<stop  offset="0" style="stop-color:#000000"/>
					<stop  offset="0.11" style="stop-color:#030A08"/>
					<stop  offset="0.31" style="stop-color:#0B261E"/>
					<stop  offset="0.56" style="stop-color:#185441"/>
					<stop  offset="0.85" style="stop-color:#2A9271"/>
					<stop  offset="1" style="stop-color:#34B38B"/>
				</linearGradient>
				<path class="st3" d="M248.9,22.4L248.9,22.4c-1.2,1.3-2.3,2.8-3.2,4.4c-6.4-6.4-16.8-6.5-23.2-0.1c-2.3,2.3-3.8,5.1-4.5,8.2
					c0,0,0,0.1,0,0.1c-0.3,1-3.1,12.1,7.8,23.4c-2-0.8-3.9-2-5.6-3.3c-3.9-3.1-6.5-7.4-7.5-12.3c-0.3-1.4-0.4-2.9-0.4-4.4
					c0-12.1,9.8-21.9,21.8-21.9C239.5,16.6,244.9,18.7,248.9,22.4L248.9,22.4z"/>
				
					<linearGradient id="SVGID_3_" gradientUnits="userSpaceOnUse" x1="201.9917" y1="52.5725" x2="248.8117" y2="21.2725" gradientTransform="matrix(1 0 0 -1 0 84)">
					<stop  offset="0" style="stop-color:#000000"/>
					<stop  offset="8.000000e-02" style="stop-color:#030A08"/>
					<stop  offset="0.21" style="stop-color:#0B261E"/>
					<stop  offset="0.37" style="stop-color:#185441"/>
					<stop  offset="0.57" style="stop-color:#2A9271"/>
					<stop  offset="0.69" style="stop-color:#35B88F"/>
					<stop  offset="1" style="stop-color:#34B38B"/>
				</linearGradient>
				<path class="st4" d="M249,54.5c-0.3,0.2-0.6,0.3-0.9,0.5s-0.6,0.3-0.9,0.5c-2.8,1.7-5.3,3.5-8.6,4.2c-4.3,1-8.9,0.6-12.9-1.2
					l0,0l0,0c-10.8-11.3-8.1-22.4-7.8-23.4c-0.5,2.2-0.5,4.5,0,6.7c0.7,3.4,2.5,6.4,5.2,8.7c2.5,2.2,5.5,3.6,8.8,4.3
					c2,0.4,4,0.3,6-0.3c2-0.7,3.8-1.7,5.5-3l0.3-0.2l0.9-0.6l0.9-0.6l3.1,1.4L249,54.5z"/>
			</g>
		</g>
		<g id="sub-headline">
			<path id="s-2" class="st5" d="M6.1,67.7c1.3,0,2.5,0.2,3.7,0.8l-0.3,0.3c-1.1-0.5-2.2-0.7-3.4-0.7c-1,0-1.9,0.1-2.8,0.5
				c-0.7,0.2-1.1,0.9-1.1,1.6c0,0.5,0.2,0.9,0.6,1.2c0.5,0.4,1,0.6,1.6,0.7l2,0.5l2,0.5c0.6,0.2,1.1,0.5,1.6,0.9
				c0.4,0.4,0.6,0.9,0.6,1.4c0,0.9-0.5,1.7-1.4,2c-1,0.5-2.2,0.7-3.3,0.7c-1.8,0.1-3.5-0.4-5-1.5l0.4-0.3c1.4,0.9,3,1.4,4.6,1.4
				c1,0,2-0.2,2.9-0.6C9.5,77,10,76.3,10,75.6c0-0.5-0.2-1-0.6-1.3C9,74,8.5,73.7,8,73.6l-2-0.5c-0.7-0.2-1.4-0.4-2-0.6
				c-0.6-0.2-1.1-0.4-1.6-0.8c-0.4-0.4-0.6-0.9-0.6-1.4c0-0.8,0.5-1.6,1.2-1.9C4,67.9,5.1,67.7,6.1,67.7z"/>
			<path id="o-2" class="st5" d="M15,69.2c1.4-1,3.1-1.6,4.8-1.5c1.7-0.1,3.4,0.5,4.8,1.5c2.1,1.5,2.6,4.4,1,6.5
				c-0.3,0.4-0.6,0.7-1,1c-1.4,1-3.1,1.6-4.8,1.5c-1.7,0.1-3.4-0.5-4.8-1.5c-2.1-1.5-2.6-4.4-1-6.5C14.3,69.8,14.6,69.5,15,69.2z
				 M24.3,69.5c-1.3-0.9-2.9-1.4-4.5-1.3c-1.6-0.1-3.2,0.4-4.5,1.3c-1.9,1.5-2.3,4.2-0.9,6.1c0.2,0.3,0.5,0.6,0.9,0.9
				c1.3,0.9,2.9,1.4,4.5,1.4c1.6,0.1,3.2-0.4,4.5-1.4c1.9-1.5,2.3-4.2,0.9-6.1C24.9,70,24.6,69.7,24.3,69.5z"/>
			<path id="f" class="st5" d="M35.1,63.5c-0.9,0-1.7,0.3-2.4,0.8c-0.6,0.5-1,1.3-1,2.1v1.5h4.5v0.4h-4.5v9.9h-0.5v-9.9h-1.8v-0.4
				h1.8v-1.5c0-0.9,0.4-1.8,1.2-2.4c0.8-0.6,1.8-1,2.8-0.9c1,0,1.9,0.3,2.8,0.8l-0.3,0.3C36.8,63.8,36,63.6,35.1,63.5z"/>
			<path id="t" class="st5" d="M44.8,77.2l0.3,0.3c-0.8,0.5-1.8,0.7-2.8,0.8c-0.8,0.1-1.6-0.2-2.2-0.7c-0.5-0.6-0.8-1.4-0.8-2.2v-7
				h-2V68h2v-2.5h0.5v2.5h4.9v0.4h-4.9v7c0,0.7,0.2,1.4,0.6,1.9c0.5,0.5,1.1,0.7,1.8,0.6C43.2,77.8,44,77.6,44.8,77.2z"/>
			<path id="w" class="st5" d="M62.5,78.3h-0.6l-5-10l-5,10h-0.6L46,67.7h0.7l5,10.1l4.9-10.1h0.6l5,10.1l5-10.1h0.6L62.5,78.3z"/>
			<path id="a-2" class="st5" d="M79.7,78.3v-2.4c-1.2,1.6-3.1,2.4-5.9,2.4c-1.1,0-2.3-0.3-3.3-0.9c-0.8-0.5-1.3-1.3-1.3-2.2
				c0-0.9,0.6-1.7,1.4-2c1.2-0.5,2.5-0.8,3.8-0.7h5.2v-1.3c0-0.9-0.4-1.8-1.2-2.3c-1-0.6-2.1-0.9-3.3-0.8c-1.7,0-3.4,0.5-4.9,1.5
				L70,69.3c1.6-1,3.4-1.5,5.2-1.6c1.3-0.1,2.6,0.2,3.7,0.9c0.8,0.6,1.3,1.5,1.3,2.6l0.1,7L79.7,78.3z M73.8,77.8
				c2.9,0,4.8-1,5.8-2.9v-2h-5.2c-1.2-0.1-2.3,0.1-3.4,0.6c-0.7,0.3-1.2,0.9-1.2,1.7c0,0.8,0.4,1.5,1.1,1.9
				C71.7,77.7,72.8,77.9,73.8,77.8z"/>
			<path id="r" class="st5" d="M86.2,67.7v2.9c0.9-1.9,2.7-2.8,5.3-2.9v0.4c-1.4,0-2.7,0.4-3.8,1.2c-0.9,0.8-1.5,1.9-1.6,3.2v5.8
				h-0.5V67.7H86.2z"/>
			<path id="e" class="st5" d="M99.9,77.8c1.8,0.1,3.5-0.4,4.9-1.5l0.4,0.3c-1.5,1.2-3.4,1.7-5.3,1.7c-1.7,0.1-3.4-0.5-4.8-1.5
				c-2.1-1.6-2.5-4.5-1-6.6c0.3-0.4,0.6-0.7,1-1c1.4-1,3.1-1.6,4.8-1.5c1.7-0.1,3.4,0.4,4.7,1.5c1.2,0.9,1.8,2.3,1.8,3.8H93.8
				c0,1.4,0.6,2.7,1.7,3.5C96.8,77.4,98.3,77.9,99.9,77.8z M99.9,68.1c-1.5-0.1-3,0.4-4.2,1.2c-1.1,0.7-1.8,1.9-1.9,3.2h12.1
				c-0.1-1.3-0.7-2.5-1.8-3.2C102.9,68.5,101.4,68.1,99.9,68.1z"/>
			<path id="d" class="st5" d="M130.9,63.1v15.1h-0.5v-3.1c-0.6,1-1.4,1.8-2.4,2.3c-1.2,0.6-2.5,0.9-3.8,0.8
				c-1.8,0.1-3.5-0.5-4.9-1.5c-2.1-1.5-2.6-4.5-1-6.6c0.3-0.4,0.6-0.7,1-1c1.4-1,3.1-1.6,4.9-1.5c1.3,0,2.6,0.3,3.8,0.8
				c1,0.5,1.9,1.3,2.4,2.3v-7.7H130.9z M119.5,76.5c2.7,1.8,6.3,1.8,9,0c1.9-1.4,2.3-4.2,0.9-6.1c-0.3-0.3-0.6-0.6-0.9-0.9
				c-2.7-1.8-6.3-1.8-9,0c-1.9,1.4-2.3,4.2-0.9,6.1C118.9,76,119.2,76.3,119.5,76.5z"/>
			<path id="e-2" class="st5" d="M142.1,77.8c1.8,0.1,3.5-0.4,4.9-1.5l0.4,0.3c-1.5,1.2-3.4,1.7-5.3,1.7c-1.7,0.1-3.4-0.5-4.8-1.5
				c-2.1-1.6-2.5-4.5-1-6.6c0.3-0.4,0.6-0.7,1-1c1.4-1,3.1-1.6,4.8-1.5c1.7-0.1,3.3,0.4,4.7,1.5c1.2,0.9,1.8,2.3,1.8,3.8h-12.7
				c0,1.4,0.6,2.7,1.7,3.5C138.9,77.4,140.5,77.9,142.1,77.8z M142.1,68.1c-1.5-0.1-3,0.4-4.3,1.2c-1.1,0.7-1.8,1.9-1.9,3.2H148
				c-0.1-1.3-0.7-2.5-1.8-3.2C145,68.5,143.6,68.1,142.1,68.1z"/>
			<path id="v" class="st5" d="M156.1,78.3h-0.6l-5.7-10.5h0.6l5.4,10.1l5.4-10.1h0.6L156.1,78.3z"/>
			<path id="e-3" class="st5" d="M169.6,77.8c1.8,0.1,3.5-0.4,4.9-1.5l0.4,0.3c-1.5,1.2-3.4,1.7-5.3,1.7c-1.7,0.1-3.4-0.5-4.8-1.5
				c-2.1-1.6-2.5-4.5-1-6.6c0.3-0.4,0.6-0.7,1-1c1.4-1,3.1-1.6,4.8-1.5c1.7-0.1,3.3,0.4,4.7,1.5c1.2,0.9,1.8,2.3,1.8,3.8h-12.7
				c0,1.4,0.6,2.7,1.7,3.5C166.4,77.4,168,77.9,169.6,77.8z M169.6,68.1c-1.5-0.1-3,0.4-4.3,1.2c-1.1,0.7-1.8,1.9-1.9,3.2h12.1
				c-0.1-1.3-0.8-2.5-1.8-3.2C172.5,68.5,171.1,68.1,169.6,68.1z"/>
			<path id="l-2" class="st5" d="M181,78.3h-0.5V63.1h0.5V78.3z"/>
			<path id="o-3" class="st5" d="M187.4,69.2c2.9-2,6.8-2,9.7,0c2.1,1.5,2.6,4.4,1,6.5c-0.3,0.4-0.6,0.7-1,1c-2.9,2-6.8,2-9.7,0
				c-2.1-1.5-2.6-4.4-1-6.5C186.7,69.8,187,69.5,187.4,69.2L187.4,69.2z M196.7,69.5c-2.7-1.8-6.3-1.8-9,0c-1.9,1.5-2.3,4.2-0.9,6.1
				c0.2,0.3,0.5,0.6,0.9,0.9c2.7,1.8,6.3,1.8,9,0c1.9-1.5,2.3-4.2,0.9-6.1C197.3,70,197.1,69.7,196.7,69.5z"/>
			<path id="o-4" class="st5" d="M210.3,67.7c1.7-0.1,3.5,0.5,4.9,1.5c2.1,1.5,2.5,4.5,1,6.6c-0.3,0.4-0.6,0.7-1,1
				c-1.4,1-3.1,1.6-4.9,1.5c-1.3,0-2.6-0.3-3.8-0.8c-1-0.5-1.9-1.3-2.4-2.3v7h-0.5V67.7h0.5v3.1c0.5-1,1.4-1.8,2.4-2.3
				C207.7,68,209,67.7,210.3,67.7z M205.8,76.5c2.7,1.8,6.2,1.8,8.9,0c1.9-1.4,2.3-4.2,0.9-6.1c-0.3-0.3-0.6-0.7-0.9-0.9
				c-2.7-1.8-6.2-1.8-8.9,0c-1.9,1.4-2.3,4.2-0.9,6.1C205.2,75.9,205.5,76.2,205.8,76.5z"/>
			<path id="m" class="st5" d="M238.9,67.7c1.4-0.1,2.8,0.3,3.9,1.1c0.9,0.7,1.5,1.9,1.4,3.1v6.4h-0.5v-6.4c0-1.1-0.4-2.1-1.3-2.8
				c-1-0.7-2.3-1.1-3.5-1c-1.5-0.1-3,0.4-4.2,1.3c-1,0.9-1.6,2.2-1.5,3.6v5.2h-0.5v-6.4c0-1.1-0.4-2.1-1.3-2.8c-1-0.7-2.3-1.1-3.6-1
				c-1.5-0.1-3,0.4-4.2,1.3c-1,0.9-1.6,2.3-1.5,3.6v5.2h-0.5V67.7h0.5v3c0.4-1,1.2-1.7,2.1-2.2c1.1-0.6,2.4-0.8,3.6-0.8
				c1.2-0.1,2.5,0.2,3.6,0.8c0.9,0.5,1.5,1.4,1.7,2.4c0.4-1,1.2-1.8,2.1-2.4C236.3,68,237.6,67.7,238.9,67.7z"/>
			<path id="e-4" class="st5" d="M254.8,77.8c1.8,0.1,3.5-0.4,4.9-1.5l0.4,0.3c-1.5,1.2-3.4,1.7-5.3,1.7c-1.7,0.1-3.4-0.5-4.8-1.5
				c-2.1-1.6-2.5-4.5-1-6.6c0.3-0.4,0.6-0.7,1-1c1.4-1,3.1-1.6,4.8-1.5c1.7-0.1,3.3,0.4,4.7,1.5c1.2,0.9,1.8,2.3,1.8,3.8h-12.6
				c0,1.4,0.6,2.7,1.7,3.5C251.7,77.4,253.2,77.9,254.8,77.8z M254.8,68.1c-1.5-0.1-3,0.4-4.3,1.2c-1.1,0.7-1.8,1.9-1.9,3.2h12.1
				c-0.1-1.3-0.7-2.5-1.8-3.2C257.8,68.5,256.3,68.1,254.8,68.1z"/>
			<path id="n-2" class="st5" d="M272,67.7c1.4-0.1,2.8,0.3,4,1.1c1,0.7,1.5,1.9,1.4,3.1v6.4h-0.5v-6.4c0-1.1-0.4-2.1-1.3-2.8
				c-1.1-0.7-2.3-1.1-3.6-1c-1.5,0-2.9,0.4-4.1,1.2c-1,0.8-1.7,1.9-1.8,3.2v5.7h-0.5V67.7h0.5v3c0.5-1,1.2-1.7,2.2-2.2
				C269.4,68,270.7,67.7,272,67.7z"/>
			<path id="t-2" class="st5" d="M288.8,77.2l0.3,0.3c-0.8,0.5-1.8,0.7-2.8,0.8c-0.8,0.1-1.6-0.2-2.2-0.7c-0.5-0.6-0.8-1.4-0.8-2.2
				v-7h-2V68h2v-2.5h0.5v2.5h4.9v0.4h-4.9v7c0,0.7,0.2,1.4,0.6,1.9c0.5,0.5,1.1,0.7,1.8,0.6C287.2,77.8,288,77.6,288.8,77.2z"/>
		</g>
	</g>
</g>
</svg>
