<svg xmlns="http://www.w3.org/2000/svg" xmlns:xlink="http://www.w3.org/1999/xlink" viewBox="0 0 289.09 82.21"><defs><style>.cls-1{fill:#fff;}.cls-2{fill:#35b88f;}.cls-3{fill:url(#linear-gradient);}.cls-4{fill:url(#linear-gradient-2);}.cls-5{fill:url(#linear-gradient-3);}</style><linearGradient id="linear-gradient" x1="262.62" y1="59.47" x2="233.6" y2="8.95" gradientUnits="userSpaceOnUse"><stop offset="0" stop-color="#34b38b"/><stop offset="0.21" stop-color="#35b88f"/><stop offset="1" stop-opacity="0"/></linearGradient><linearGradient id="linear-gradient-2" x1="236.19" y1="16.07" x2="220.46" y2="49.26" gradientUnits="userSpaceOnUse"><stop offset="0" stop-color="#fff"/><stop offset="0.1" stop-color="#f5fbf9"/><stop offset="0.28" stop-color="#d9f1e9"/><stop offset="0.51" stop-color="#abe0cf"/><stop offset="0.77" stop-color="#6dc9ac"/><stop offset="1" stop-color="#34b38b"/></linearGradient><linearGradient id="linear-gradient-3" x1="217.44" y1="47.67" x2="248.97" y2="47.67" gradientUnits="userSpaceOnUse"><stop offset="0" stop-color="#33a881"/><stop offset="1" stop-color="#34b38b"/></linearGradient></defs><title>sibanco white0</title><g id="Layer_2" data-name="Layer 2"><g id="logo-white"><g id="sub-headline"><g id="s"><path class="cls-1" d="M6.13,67.72a9.07,9.07,0,0,1,3.72.76l-.27.34a7.86,7.86,0,0,0-3.43-.69,6.54,6.54,0,0,0-2.82.53,1.66,1.66,0,0,0-1.09,1.55,1.52,1.52,0,0,0,.62,1.23,3.92,3.92,0,0,0,1.55.73l2,.51,2,.54a3.72,3.72,0,0,1,1.55.86,2,2,0,0,1,.62,1.45,2.21,2.21,0,0,1-1.36,2,7.32,7.32,0,0,1-3.33.69,8.07,8.07,0,0,1-5-1.47l.36-.3a7.62,7.62,0,0,0,4.64,1.36,6.79,6.79,0,0,0,2.92-.56,1.89,1.89,0,0,0,1.23-1.66,1.52,1.52,0,0,0-.57-1.27A3.69,3.69,0,0,0,8,73.58l-2-.53c-.73-.18-1.41-.37-2-.55a3.88,3.88,0,0,1-1.58-.85,1.81,1.81,0,0,1-.63-1.4A2,2,0,0,1,3,68.36,7.08,7.08,0,0,1,6.13,67.72Z"/></g><g id="o"><path class="cls-1" d="M15,69.21a7.69,7.69,0,0,1,4.84-1.49,7.69,7.69,0,0,1,4.84,1.49,4.67,4.67,0,0,1,0,7.56,7.69,7.69,0,0,1-4.84,1.49A7.69,7.69,0,0,1,15,76.77a4.67,4.67,0,0,1,0-7.56Zm9.32.27a7.13,7.13,0,0,0-4.48-1.35,7.13,7.13,0,0,0-4.48,1.35,4.39,4.39,0,0,0,0,7,7.07,7.07,0,0,0,4.48,1.36,7.07,7.07,0,0,0,4.48-1.36,4.39,4.39,0,0,0,0-7Z"/></g><g id="f"><path class="cls-1" d="M35.1,63.54a3.51,3.51,0,0,0-2.41.82,2.62,2.62,0,0,0-1,2.08v1.49h4.53v.4H31.7v9.93h-.54V68.33H29.41v-.4h1.75V66.44a3,3,0,0,1,1.15-2.37,4.06,4.06,0,0,1,2.79-.93,5.49,5.49,0,0,1,2.75.75l-.32.33A5.1,5.1,0,0,0,35.1,63.54Z"/></g><g id="t"><path class="cls-1" d="M44.76,77.18l.32.32a5.69,5.69,0,0,1-2.75.76,3,3,0,0,1-2.21-.72,3,3,0,0,1-.76-2.18v-7h-2v-.4h2V65.42h.54v2.51h4.91v.4H39.9v7a2.6,2.6,0,0,0,.62,1.87,2.36,2.36,0,0,0,1.81.62A5,5,0,0,0,44.76,77.18Z"/></g><g id="w"><path class="cls-1" d="M62.49,78.26h-.6l-5-10-5,10h-.59L46,67.72h.65l5,10.07,4.94-10.07h.64l5,10.07,5-10.07h.62Z"/></g><g id="a"><path class="cls-1" d="M79.65,78.26l0-2.39q-1.78,2.38-5.86,2.39a5.7,5.7,0,0,1-3.26-.86,2.54,2.54,0,0,1-1.27-2.18,2.2,2.2,0,0,1,1.39-2,8.47,8.47,0,0,1,3.79-.71h5.18V71.23a2.74,2.74,0,0,0-1.15-2.3,5.59,5.59,0,0,0-3.27-.8,9.58,9.58,0,0,0-4.89,1.47L70,69.27a10.09,10.09,0,0,1,5.21-1.55,6.06,6.06,0,0,1,3.65.94,3.06,3.06,0,0,1,1.31,2.57l.06,7Zm-5.86-.41q4.29,0,5.83-2.89l0-2H74.41a7.93,7.93,0,0,0-3.43.6,1.87,1.87,0,0,0-1.21,1.7,2.19,2.19,0,0,0,1.09,1.91A5.27,5.27,0,0,0,73.79,77.85Z"/></g><g id="r"><path class="cls-1" d="M86.2,67.72V70.6q1.32-2.82,5.34-2.88v.41a5.89,5.89,0,0,0-3.76,1.19,4.49,4.49,0,0,0-1.58,3.17v5.77h-.54V67.72Z"/></g><g id="e"><path class="cls-1" d="M99.93,77.85a7.39,7.39,0,0,0,4.94-1.53l.38.29a8.15,8.15,0,0,1-5.32,1.65,7.58,7.58,0,0,1-4.81-1.49,4.71,4.71,0,0,1,0-7.56,7.58,7.58,0,0,1,4.81-1.49,7.12,7.12,0,0,1,4.69,1.48A4.68,4.68,0,0,1,106.41,73H93.76a4.27,4.27,0,0,0,1.74,3.51A7,7,0,0,0,99.93,77.85Zm0-9.72a7.07,7.07,0,0,0-4.24,1.23,4.32,4.32,0,0,0-1.91,3.21h12.09a4.45,4.45,0,0,0-1.78-3.22A6.68,6.68,0,0,0,99.93,68.13Z"/></g><g id="d"><path class="cls-1" d="M130.85,63.14V78.26h-.54v-3.1a5.44,5.44,0,0,1-2.44,2.29,8.26,8.26,0,0,1-3.84.85,7.78,7.78,0,0,1-4.89-1.5,4.71,4.71,0,0,1,0-7.61,7.7,7.7,0,0,1,4.9-1.51,8.26,8.26,0,0,1,3.84.85,5.49,5.49,0,0,1,2.44,2.29V63.14ZM119.52,76.51a8,8,0,0,0,9,0,4.36,4.36,0,0,0,0-7,8,8,0,0,0-9,0,4.36,4.36,0,0,0,0,7Z"/></g><g id="e-2" data-name="e"><path class="cls-1" d="M142.08,77.85A7.38,7.38,0,0,0,147,76.32l.38.29a8.14,8.14,0,0,1-5.31,1.65,7.59,7.59,0,0,1-4.82-1.49,4.71,4.71,0,0,1,0-7.56,7.59,7.59,0,0,1,4.82-1.49,7.11,7.11,0,0,1,4.68,1.48A4.68,4.68,0,0,1,148.55,73H135.9a4.27,4.27,0,0,0,1.74,3.51A7,7,0,0,0,142.08,77.85Zm0-9.72a7.1,7.1,0,0,0-4.25,1.23,4.31,4.31,0,0,0-1.9,3.21H148a4.42,4.42,0,0,0-1.78-3.22A6.65,6.65,0,0,0,142.08,68.13Z"/></g><g id="v"><path class="cls-1" d="M156.08,78.26h-.59l-5.72-10.54h.62l5.39,10.07,5.37-10.07h.65Z"/></g><g id="e-3" data-name="e"><path class="cls-1" d="M169.57,77.85a7.41,7.41,0,0,0,4.94-1.53l.38.29a8.17,8.17,0,0,1-5.32,1.65,7.61,7.61,0,0,1-4.82-1.49,4.71,4.71,0,0,1,0-7.56,7.61,7.61,0,0,1,4.82-1.49,7.11,7.11,0,0,1,4.68,1.48,4.66,4.66,0,0,1,1.8,3.78H163.39a4.27,4.27,0,0,0,1.74,3.51A7,7,0,0,0,169.57,77.85Zm0-9.72a7.1,7.1,0,0,0-4.25,1.23,4.31,4.31,0,0,0-1.9,3.21h12.09a4.43,4.43,0,0,0-1.79-3.22A6.65,6.65,0,0,0,169.57,68.13Z"/></g><g id="l"><path class="cls-1" d="M181,78.26h-.54V63.14H181Z"/></g><g id="o-2" data-name="o"><path class="cls-1" d="M187.42,69.21a8.61,8.61,0,0,1,9.68,0,4.67,4.67,0,0,1,0,7.56,8.61,8.61,0,0,1-9.68,0,4.67,4.67,0,0,1,0-7.56Zm9.32.27a8.11,8.11,0,0,0-9,0,4.39,4.39,0,0,0,0,7,8.06,8.06,0,0,0,9,0,4.39,4.39,0,0,0,0-7Z"/></g><g id="o-3" data-name="o"><path class="cls-1" d="M210.31,67.72a7.66,7.66,0,0,1,4.86,1.5,4.69,4.69,0,0,1,0,7.55,7.71,7.71,0,0,1-4.86,1.49,8.36,8.36,0,0,1-3.82-.84,5.31,5.31,0,0,1-2.41-2.26v7h-.54V67.72h.54v3.1a5.31,5.31,0,0,1,2.41-2.26A8.36,8.36,0,0,1,210.31,67.72Zm-4.47,8.77a8,8,0,0,0,8.94,0,4.35,4.35,0,0,0,0-7,8,8,0,0,0-8.94,0,4.35,4.35,0,0,0,0,7Z"/></g><g id="m"><path class="cls-1" d="M238.85,67.72a6.24,6.24,0,0,1,3.94,1.1,3.67,3.67,0,0,1,1.41,3.06v6.38h-.54V71.88a3.32,3.32,0,0,0-1.27-2.76,5.62,5.62,0,0,0-3.54-1,6.45,6.45,0,0,0-4.23,1.35,4.55,4.55,0,0,0-1.51,3.62v5.16h-.54V71.88a3.3,3.3,0,0,0-1.28-2.76,5.69,5.69,0,0,0-3.55-1,6.44,6.44,0,0,0-4.22,1.35A4.53,4.53,0,0,0,222,73.1v5.16h-.54V67.72H222v3a4.61,4.61,0,0,1,2.13-2.21,7.9,7.9,0,0,1,3.65-.81,6.68,6.68,0,0,1,3.56.85,3.58,3.58,0,0,1,1.7,2.37,4.62,4.62,0,0,1,2.11-2.36A7.73,7.73,0,0,1,238.85,67.72Z"/></g><g id="e-4" data-name="e"><path class="cls-1" d="M254.83,77.85a7.38,7.38,0,0,0,4.93-1.53l.38.29a8.14,8.14,0,0,1-5.31,1.65A7.59,7.59,0,0,1,250,76.77a4.71,4.71,0,0,1,0-7.56,7.59,7.59,0,0,1,4.82-1.49,7.11,7.11,0,0,1,4.68,1.48A4.68,4.68,0,0,1,261.3,73H248.65a4.27,4.27,0,0,0,1.74,3.51A7,7,0,0,0,254.83,77.85Zm0-9.72a7.1,7.1,0,0,0-4.25,1.23,4.31,4.31,0,0,0-1.9,3.21h12.08A4.42,4.42,0,0,0,259,69.35,6.65,6.65,0,0,0,254.83,68.13Z"/></g><g id="n"><path class="cls-1" d="M272,67.72a6.54,6.54,0,0,1,4,1.1,3.64,3.64,0,0,1,1.44,3.06v6.38h-.54V71.88a3.25,3.25,0,0,0-1.31-2.76,5.88,5.88,0,0,0-3.62-1,6.91,6.91,0,0,0-4.13,1.2,4.38,4.38,0,0,0-1.75,3.2v5.73h-.54V67.72h.54v3a4.61,4.61,0,0,1,2.18-2.18A8.26,8.26,0,0,1,272,67.72Z"/></g><g id="t-2" data-name="t"><path class="cls-1" d="M288.77,77.18l.32.32a5.72,5.72,0,0,1-2.75.76,3,3,0,0,1-2.21-.72,2.91,2.91,0,0,1-.76-2.18v-7h-2.05v-.4h2.05V65.42h.54v2.51h4.91v.4h-4.91v7a2.6,2.6,0,0,0,.62,1.87,2.36,2.36,0,0,0,1.81.62A5,5,0,0,0,288.77,77.18Z"/></g></g><g id="siblanco"><g id="s-2" data-name="s"><path class="cls-1" d="M7.48,58.87A21.33,21.33,0,0,1,0,55.07L2.62,50.5A22,22,0,0,0,9.4,54a26.91,26.91,0,0,0,8.5,1.35c3.92,0,6.83-.62,8.71-1.84a5.86,5.86,0,0,0,2.82-5.19,4.66,4.66,0,0,0-1.56-3.72,10.2,10.2,0,0,0-3.92-2,53.36,53.36,0,0,0-6.29-1.35,71,71,0,0,1-8.42-2A12.3,12.3,0,0,1,3.8,35.7a9.63,9.63,0,0,1-2.25-6.78,10.63,10.63,0,0,1,4.5-8.83q4.49-3.43,12.5-3.43a32.29,32.29,0,0,1,8.34,1.1,23.06,23.06,0,0,1,6.87,2.9l-2.54,4.66a21.7,21.7,0,0,0-12.67-3.68c-3.7,0-6.49.66-8.37,2a6,6,0,0,0-2.82,5.15A5.09,5.09,0,0,0,9,32.68a9.73,9.73,0,0,0,4,2.16,62,62,0,0,0,6.54,1.43,77.33,77.33,0,0,1,8.26,2A12.19,12.19,0,0,1,33,41.59a9.21,9.21,0,0,1,2.21,6.54,10.39,10.39,0,0,1-4.7,8.94q-4.71,3.32-13,3.32A32.93,32.93,0,0,1,7.48,58.87Z"/></g><g id="a-2" data-name="a"><path class="cls-1" d="M154.29,23.69a21.91,21.91,0,1,0,0,29.67v7.07h5.8V38.53A21.8,21.8,0,0,0,154.29,23.69ZM138.18,55a16.46,16.46,0,1,1,16.11-19.83,16.45,16.45,0,0,1,0,6.75A16.47,16.47,0,0,1,138.18,55Z"/></g><g id="l-2" data-name="l"><path class="cls-1" d="M104.07,0V60.43h5.79V0Z"/></g><g id="i"><path class="cls-1" d="M41.57,17.44v43h5.8v-43Z"/></g><g id="n-2" data-name="n"><path class="cls-1" d="M200.71,22.1c-3.48-3.5-8.56-5.43-14.62-5.42-11.64,0-19.59,7.15-19.59,18.81V60.43h5.79V36.07c0-4.46,1.13-7.86,3.36-10.22,5-5.25,16-5.29,21,0,2.24,2.36,3.36,5.75,3.36,10.22V60.43h5.8V35.49C205.77,29.88,203.92,25.32,200.71,22.1Z"/></g><g id="b"><path class="cls-1" d="M75.75,16.62a21.82,21.82,0,0,0-16.11,7.07V0H53.85V38.53a21.91,21.91,0,1,0,21.9-21.91Zm0,38.36A16.46,16.46,0,1,1,92.21,38.53,16.53,16.53,0,0,1,75.75,55Z"/></g><g id="i-punkt"><path class="cls-1" d="M41.45,7a4,4,0,0,1-1.23-2.94,3.9,3.9,0,0,1,1.23-2.86,4.08,4.08,0,0,1,3-1.23,4.2,4.2,0,0,1,3,1.18A3.82,3.82,0,0,1,48.72,4a4.11,4.11,0,0,1-1.23,3,4.32,4.32,0,0,1-6,0Z"/></g><g id="o-4" data-name="o"><path class="cls-1" d="M288.23,38.54a21.91,21.91,0,0,1-21.91,21.9,21.41,21.41,0,0,1-9.86-2.36l2.81-4.58.06-.09a16,16,0,0,0,7,1.58,16.46,16.46,0,1,0-12.89-26.64A14.72,14.72,0,0,0,252.28,30a16.16,16.16,0,0,0-2.41,8.54,14.91,14.91,0,0,0,.16,2.23l-.09,0-5.22,1.31a21,21,0,0,1-.3-3.56,21.67,21.67,0,0,1,2.52-10.21,21.41,21.41,0,0,1,3.23-4.6,21.91,21.91,0,0,1,38.06,14.81Z"/></g><g id="arrow"><polygon class="cls-2" points="266.33 38.6 248.66 51.49 245.57 50.13 236.25 46.05 266.33 38.6 266.33 38.6"/><polygon class="cls-3" points="250.07 64.97 248.97 54.45 248.66 51.49 266.33 38.6 250.07 64.97"/></g><g id="c"><path class="cls-4" d="M248.89,22.43l0,.06a24.08,24.08,0,0,0-3.18,4.39A16.43,16.43,0,0,0,218,35a.27.27,0,0,1,0,.09c-.31,1.06-3.09,12.16,7.75,23.44a23.35,23.35,0,0,1-5.61-3.33,21.14,21.14,0,0,1-7.54-12.3,23.24,23.24,0,0,1-.41-4.35,21.87,21.87,0,0,1,36.72-16.1Z"/><path class="cls-5" d="M249,54.45c-.3.17-.57.35-.86.53s-.56.35-.85.53c-2.76,1.72-5.34,3.45-8.58,4.23a20.82,20.82,0,0,1-12.93-1.22h0c-10.84-11.28-8.06-22.38-7.75-23.44a16.41,16.41,0,0,0,0,6.74,15.77,15.77,0,0,0,5.16,8.68,18.66,18.66,0,0,0,8.79,4.26,12.76,12.76,0,0,0,6-.28,22.65,22.65,0,0,0,5.54-3l.29-.18.92-.6.95-.58,3.09,1.36Z"/></g></g></g></g></svg>