<svg xmlns="http://www.w3.org/2000/svg" xmlns:xlink="http://www.w3.org/1999/xlink" viewBox="0 0 158.68 35.77"><defs><linearGradient id="linear-gradient" x1="144.58" y1="32.75" x2="128.61" y2="4.93" gradientUnits="userSpaceOnUse"><stop offset="0" stop-color="#34b38b"/><stop offset="0.21" stop-color="#35b88f"/><stop offset="1"/></linearGradient><linearGradient id="linear-gradient-2" x1="130.33" y1="8.74" x2="120.96" y2="26.78" gradientUnits="userSpaceOnUse"><stop offset="0"/><stop offset="0.11" stop-color="#030a08"/><stop offset="0.31" stop-color="#0b261e"/><stop offset="0.56" stop-color="#185441"/><stop offset="0.85" stop-color="#2a9271"/><stop offset="1" stop-color="#34b38b"/></linearGradient><linearGradient id="linear-gradient-3" x1="111.2" y1="17.32" x2="136.97" y2="34.55" gradientUnits="userSpaceOnUse"><stop offset="0"/><stop offset="0.08" stop-color="#030a08"/><stop offset="0.21" stop-color="#0b261e"/><stop offset="0.37" stop-color="#185441"/><stop offset="0.57" stop-color="#2a9271"/><stop offset="0.69" stop-color="#35b88f"/><stop offset="1" stop-color="#34b38b"/></linearGradient></defs><g id="Ebene_2" data-name="Ebene 2"><g id="Layer_1" data-name="Layer 1"><g id="siblanco"><path id="s" d="M4.12,32.41A11.74,11.74,0,0,1,0,30.32L1.44,27.8a11.93,11.93,0,0,0,3.74,1.91,14.59,14.59,0,0,0,4.67.74,8.91,8.91,0,0,0,4.8-1,3.21,3.21,0,0,0,1.55-2.85,2.6,2.6,0,0,0-.85-2.05,5.84,5.84,0,0,0-2.16-1.13,32.73,32.73,0,0,0-3.47-.74,41,41,0,0,1-4.64-1.1,6.86,6.86,0,0,1-3-1.92A5.33,5.33,0,0,1,.85,15.92a5.86,5.86,0,0,1,2.48-4.86,11.1,11.1,0,0,1,6.88-1.89,17.73,17.73,0,0,1,4.6.61,12.44,12.44,0,0,1,3.77,1.6l-1.39,2.56a11.94,11.94,0,0,0-7-2A8,8,0,0,0,5.6,13a3.3,3.3,0,0,0-1.55,2.83A2.78,2.78,0,0,0,4.93,18a5.29,5.29,0,0,0,2.18,1.19,33.81,33.81,0,0,0,3.6.79,41.28,41.28,0,0,1,4.54,1.08,6.56,6.56,0,0,1,2.93,1.85,5.06,5.06,0,0,1,1.22,3.6,5.72,5.72,0,0,1-2.59,4.92,12.28,12.28,0,0,1-7.18,1.83A18,18,0,0,1,4.12,32.41Z" style="fill:#231f20"/><g id="a"><path d="M85,13a12.06,12.06,0,1,0,0,16.34v3.89h3.19V21.21A12,12,0,0,0,85,13ZM76.08,30.27A9.06,9.06,0,1,1,85,19.35a9.2,9.2,0,0,1,0,3.72A9.07,9.07,0,0,1,76.08,30.27Z" style="fill:#231f20"/></g><g id="l"><path d="M57.3,0V33.27h3.19V0Z" style="fill:#231f20"/></g><path id="i" d="M22.89,9.6V33.27h3.19V9.6Z" style="fill:#231f20"/><g id="n"><path d="M110.5,12.17a11.07,11.07,0,0,0-8-3c-6.41,0-10.78,3.94-10.78,10.36V33.27h3.19V19.86a7.83,7.83,0,0,1,1.85-5.63c2.73-2.89,8.78-2.91,11.54,0a7.88,7.88,0,0,1,1.85,5.63V33.27h3.19V19.54A10.12,10.12,0,0,0,110.5,12.17Z" style="fill:#231f20"/></g><g id="b"><path d="M41.71,9.15A12,12,0,0,0,32.84,13V0H29.65V21.21A12.06,12.06,0,1,0,41.71,9.15Zm0,21.12a9.06,9.06,0,1,1,9.06-9.06A9.09,9.09,0,0,1,41.71,30.27Z" style="fill:#231f20"/></g><path id="i-punkt" d="M22.82,3.87a2.21,2.21,0,0,1-.68-1.62A2.19,2.19,0,0,1,22.82.67,2.25,2.25,0,0,1,24.48,0a2.33,2.33,0,0,1,1.67.65,2.1,2.1,0,0,1,.67,1.56,2.25,2.25,0,0,1-.67,1.66,2.27,2.27,0,0,1-1.67.67A2.25,2.25,0,0,1,22.82,3.87Z" style="fill:#231f20"/><g id="o"><path d="M158.68,21.22a12.06,12.06,0,0,1-12.06,12.06,11.82,11.82,0,0,1-5.43-1.3l1.55-2.52,0-.05a8.84,8.84,0,0,0,3.85.87,9.06,9.06,0,1,0-7.1-14.67,8.18,8.18,0,0,0-.63.91,8.88,8.88,0,0,0-1.33,4.7,8.28,8.28,0,0,0,.09,1.23h-.05l-2.87.72a11.52,11.52,0,0,1-.17-2A12,12,0,0,1,136,15.6a11.78,11.78,0,0,1,1.78-2.53,12.06,12.06,0,0,1,21,8.15Z" style="fill:#231f20"/></g><g id="arrow"><polygon points="146.63 21.25 136.9 28.35 135.2 27.6 130.07 25.35 146.63 21.25 146.63 21.25" style="fill:#35b88f"/><polygon points="137.68 35.77 137.07 29.98 136.9 28.35 146.63 21.25 137.68 35.77" style="fill:url(#linear-gradient)"/></g><g id="c"><path d="M137,12.35l0,0a13.43,13.43,0,0,0-1.75,2.42A9,9,0,0,0,120,19.26a.18.18,0,0,1,0,0c-.17.58-1.7,6.69,4.27,12.9a12.66,12.66,0,0,1-3.09-1.83A11.63,11.63,0,0,1,117,23.61a12.76,12.76,0,0,1-.23-2.4A12,12,0,0,1,137,12.35Z" style="fill:url(#linear-gradient-2)"/><path d="M137.07,30l-.47.29-.47.29a16,16,0,0,1-4.72,2.33,11.46,11.46,0,0,1-7.12-.67h0c-6-6.21-4.44-12.32-4.27-12.9A9.16,9.16,0,0,0,120,23a8.68,8.68,0,0,0,2.84,4.78,10.3,10.3,0,0,0,4.84,2.34A7.05,7.05,0,0,0,131,30a12.49,12.49,0,0,0,3-1.64l.16-.1.51-.33.52-.32,1.7.75Z" style="fill:url(#linear-gradient-3)"/></g></g></g></g></svg>