<?xml version="1.0" standalone="no"?>
<!DOCTYPE svg PUBLIC "-//W3C//DTD SVG 20010904//EN"
 "http://www.w3.org/TR/2001/REC-SVG-20010904/DTD/svg10.dtd">
<svg version="1.0" xmlns="http://www.w3.org/2000/svg"
 width="512.000000pt" height="512.000000pt" viewBox="0 0 512.000000 512.000000"
 preserveAspectRatio="xMidYMid meet">
<metadata>
Created by potrace 1.14, written by Peter Selinger 2001-2017
</metadata>
<g transform="translate(0.000000,512.000000) scale(0.100000,-0.100000)"
fill="#000000" stroke="none">
<path d="M1387 4184 c-1 -1 -31 -4 -67 -8 -400 -38 -786 -257 -1025 -581 -63
-85 -131 -197 -147 -242 -7 -18 -16 -33 -20 -33 -4 0 -7 -3 -6 -7 1 -5 -12
-44 -29 -89 -18 -44 -34 -92 -37 -105 -3 -13 -10 -43 -16 -67 -5 -23 -13 -58
-16 -78 -3 -20 -8 -46 -11 -58 -12 -47 -10 -344 3 -424 55 -346 224 -649 480
-866 88 -74 101 -84 187 -141 33 -22 262 -138 277 -141 3 0 12 -3 20 -6 71
-26 163 -52 225 -63 11 -2 34 -7 50 -11 17 -4 116 -7 220 -8 186 0 198 1 355
39 8 2 16 4 18 5 1 2 7 4 12 5 6 1 11 3 13 5 1 1 10 3 20 5 29 5 176 76 255
122 41 24 78 43 83 43 5 0 9 5 9 10 0 6 4 10 10 10 5 0 53 28 107 63 126 81
120 78 120 64 0 -7 4 -32 7 -57 3 -25 8 -65 11 -90 4 -46 12 -122 20 -200 2
-25 7 -65 10 -90 3 -25 7 -69 10 -98 6 -68 16 -146 20 -150 3 -4 85 127 85
137 0 5 7 14 16 21 8 8 22 27 29 44 16 34 207 343 224 363 6 7 11 15 11 18 0
4 14 26 30 50 17 24 30 48 30 53 0 6 3 12 8 14 4 2 18 23 32 48 13 25 28 50
32 55 13 15 118 187 118 192 0 2 11 19 25 37 14 18 25 37 25 41 0 4 11 23 25
41 14 18 25 35 25 38 0 3 26 47 59 98 130 208 191 308 191 317 0 5 4 11 8 13
14 5 111 173 102 176 -4 2 -37 -4 -72 -13 -34 -10 -70 -19 -78 -20 -8 -2 -89
-22 -180 -45 -90 -22 -173 -42 -185 -45 -11 -2 -20 -4 -20 -5 0 -1 -9 -3 -20
-6 -11 -2 -56 -13 -100 -24 -85 -22 -108 -27 -140 -34 -11 -3 -48 -12 -82 -21
-35 -9 -72 -18 -84 -20 -11 -2 -29 -7 -39 -10 -10 -3 -27 -7 -37 -9 -10 -2
-38 -9 -63 -16 -25 -7 -52 -13 -60 -15 -8 -2 -98 -24 -200 -50 -102 -26 -192
-48 -200 -50 -8 -2 -73 -18 -145 -35 -71 -18 -137 -34 -145 -35 -8 -2 -15 -4
-15 -5 0 -1 -8 -3 -19 -5 -66 -13 -116 -28 -109 -34 4 -4 37 -20 73 -36 36
-15 83 -36 105 -45 290 -129 409 -180 416 -180 5 0 9 -3 9 -6 0 -7 -43 -43
-52 -44 -4 0 -49 -28 -100 -63 -111 -74 -132 -87 -223 -130 -74 -36 -96 -45
-106 -43 -3 0 -12 -4 -20 -10 -36 -30 -263 -50 -369 -33 -86 14 -104 18 -199
50 -193 63 -353 161 -490 300 -47 48 -95 100 -107 116 -64 86 -154 271 -168
345 -2 13 -9 41 -14 63 -44 163 -29 398 39 596 19 57 85 196 99 209 3 3 23 31
44 63 52 78 165 192 249 254 104 76 273 154 387 179 19 4 42 9 50 11 98 24
331 23 440 -2 14 -3 35 -8 48 -11 56 -11 196 -69 267 -109 80 -46 184 -120
198 -142 4 -7 16 -17 27 -23 15 -8 22 -4 41 28 13 20 26 42 28 47 5 12 129
173 149 194 12 12 9 19 -21 45 -152 136 -352 244 -562 304 -85 24 -121 33
-160 38 -16 2 -52 6 -80 10 -46 6 -242 13 -248 8z"/>
<path d="M3577 4154 c-1 -1 -33 -4 -72 -8 -219 -20 -420 -85 -615 -199 -62
-37 -88 -55 -176 -122 -38 -29 -181 -170 -217 -214 -42 -51 -137 -195 -137
-207 0 -7 -3 -14 -8 -16 -10 -4 -64 -119 -95 -203 -36 -97 -59 -186 -72 -285
-4 -30 -10 -66 -11 -80 -5 -34 -4 -207 1 -250 2 -19 7 -49 10 -67 l6 -31 49
13 c28 7 53 14 55 14 3 1 10 3 17 6 7 2 58 14 113 26 55 12 105 29 112 37 7 8
8 24 4 40 -13 44 -5 208 14 323 8 48 47 163 76 227 62 138 135 240 251 353 59
58 204 166 218 162 3 0 16 7 30 16 37 26 205 92 205 81 0 -2 9 2 20 8 12 5 39
13 60 16 22 4 64 10 93 15 30 4 102 7 160 5 128 -4 125 -4 182 -16 25 -5 54
-11 65 -14 108 -22 291 -109 397 -190 122 -94 242 -234 310 -364 30 -56 99
-231 97 -245 -1 -6 7 -44 18 -85 13 -56 12 -306 -3 -385 -63 -341 -273 -625
-584 -789 -49 -26 -93 -47 -97 -48 -4 0 -19 -4 -32 -10 -40 -15 -172 -47 -233
-56 -62 -10 -251 -8 -313 3 -22 4 -47 8 -55 9 -9 1 -21 5 -28 10 -6 4 -12 5
-12 2 0 -7 -171 53 -186 65 -14 11 -36 -14 -89 -103 -5 -9 -26 -43 -45 -75
-19 -32 -37 -62 -39 -68 -2 -5 -7 -12 -12 -15 -4 -3 -10 -16 -14 -30 -6 -24
-1 -27 102 -67 109 -42 134 -50 173 -58 12 -2 29 -6 38 -9 146 -44 434 -51
607 -16 28 6 61 12 75 15 57 11 192 60 288 105 83 40 229 126 252 150 3 3 27
23 55 45 120 96 242 239 330 387 42 71 115 225 119 252 1 6 5 17 9 24 5 6 5
12 1 12 -3 0 -2 6 4 13 5 6 13 28 18 47 4 19 9 40 10 45 4 13 12 53 19 85 2
14 7 39 11 55 3 17 7 89 8 160 5 239 -42 454 -146 667 -33 69 -113 205 -128
218 -3 3 -19 23 -35 45 -79 106 -193 213 -338 318 -105 76 -371 192 -486 212
-19 3 -37 7 -40 9 -6 4 -34 8 -146 22 -44 5 -213 12 -218 8z"/>
</g>
</svg>
